<svg xmlns="http://www.w3.org/2000/svg" viewBox="0 0 100 100" fill="none">
  <!-- Outer Nodes & Branches -->
  <line x1="50" y1="30" x2="50" y2="18" stroke="#c084fc" stroke-width="3.5" stroke-linecap="round" />
  <circle cx="50" cy="15" r="5" fill="#c084fc" />
  
  <line x1="41.3" y1="35" x2="36.3" y2="26.3" stroke="#c084fc" stroke-width="3.5" stroke-linecap="round" />
  <circle cx="34" cy="22.3" r="5" fill="#c084fc" />
  
  <line x1="58.7" y1="35" x2="63.7" y2="26.3" stroke="#c084fc" stroke-width="3.5" stroke-linecap="round" />
  <circle cx="66" cy="22.3" r="5" fill="#c084fc" />
  
  <line x1="32.7" y1="45" x2="22" y2="45" stroke="#c084fc" stroke-width="3.5" stroke-linecap="round" />
  <circle cx="18" cy="45" r="5" fill="#c084fc" />
  
  <line x1="32.7" y1="55" x2="22" y2="55" stroke="#c084fc" stroke-width="3.5" stroke-linecap="round" />
  <circle cx="18" cy="55" r="5" fill="#c084fc" />
  
  <line x1="67.3" y1="45" x2="78" y2="45" stroke="#c084fc" stroke-width="3.5" stroke-linecap="round" />
  <circle cx="82" cy="45" r="5" fill="#c084fc" />
  
  <line x1="67.3" y1="55" x2="78" y2="55" stroke="#c084fc" stroke-width="3.5" stroke-linecap="round" />
  <circle cx="82" cy="55" r="5" fill="#c084fc" />
  
  <line x1="41.3" y1="65" x2="36.3" y2="73.7" stroke="#c084fc" stroke-width="3.5" stroke-linecap="round" />
  <circle cx="34" cy="77.7" r="5" fill="#c084fc" />
  
  <line x1="58.7" y1="65" x2="63.7" y2="73.7" stroke="#c084fc" stroke-width="3.5" stroke-linecap="round" />
  <circle cx="66" cy="77.7" r="5" fill="#c084fc" />
  
  <line x1="50" y1="70" x2="50" y2="82" stroke="#c084fc" stroke-width="3.5" stroke-linecap="round" />
  <circle cx="50" cy="85" r="5" fill="#c084fc" />

  <!-- Central Broken Hexagon -->
  <path d="M 50 30 L 67.3 40 L 67.3 60 L 50 70" fill="none" stroke="#38bdf8" stroke-width="3.5" stroke-linecap="round" stroke-linejoin="round" />
  <path d="M 45 32.5 L 32.7 40 L 32.7 60 L 45 67.5" fill="none" stroke="#38bdf8" stroke-width="3.5" stroke-linecap="round" stroke-linejoin="round" />

  <!-- Floating Square dots -->
  <rect x="16" y="29" width="5" height="5" fill="#c084fc" />
  <rect x="80" y="67" width="5" height="5" fill="#c084fc" />

  <!-- Core Text 'NFT' -->
  <text x="50" y="56" font-family="system-ui, sans-serif" font-size="16" font-weight="bold" fill="#ffffff" text-anchor="middle" letter-spacing="0.2">NFT</text>
</svg>